# xmcd
#
# Track frame offsets:
#	150
#	17552
#	32279
#	53774
#	71865
#	97118
#	114011
#
# Disc length: 1767 seconds
#
# Revision: 24
# Processed by: cddbd v1.5.2PL0 Copyright (c) Steve Scherf et al.
# Submitted via: audiograbber 1.83.01
#
DISCID=4e06e507
DTITLE=Madonna - Remixed and Revisited
DYEAR=2003
DGENRE=Pop
TTITLE0=Madonna - Nothing Fails [Nevins Mix]
TTITLE1=Madonna - Love Profusion [Headcleanr Rock Mix]
TTITLE2=Madonna - Nobody Knows Me [(Mount Sims Old School Mix]
TTITLE3=Madonna - American Life [Headcleanr Rock Mix]
TTITLE4=Madonna feat. Christina Aguilera, Britney Spears and Missy Elliott - Like
TTITLE4=A Virgin, Hollywood Medley
TTITLE5=Madonna feat. Missy Elliott - Into The Hollywood Groove [The Passengerz
TTITLE5=Mix]
TTITLE6=Madonna - Your Honesty
EXTD=
EXTT0=
EXTT1=
EXTT2=
EXTT3=
EXTT4=
EXTT5=
EXTT6=
PLAYORDER=
